<svg width="106" height="106" viewBox="0 0 106 106" fill="none" xmlns="http://www.w3.org/2000/svg">
<path d="M35.3333 26.5C32.8941 26.5 30.9167 28.4774 30.9167 30.9166C30.9167 33.3559 32.8941 35.3333 35.3333 35.3333H70.6667C73.1059 35.3333 75.0833 33.3559 75.0833 30.9166C75.0833 28.4774 73.1059 26.5 70.6667 26.5H35.3333Z" fill="black"/>
<path d="M30.9167 48.5833C30.9167 46.1441 32.8941 44.1666 35.3333 44.1666H70.6667C73.1059 44.1666 75.0833 46.1441 75.0833 48.5833C75.0833 51.0226 73.1059 53 70.6667 53H35.3333C32.8941 53 30.9167 51.0226 30.9167 48.5833Z" fill="black"/>
<path d="M35.3333 61.8333C32.8941 61.8333 30.9167 63.8107 30.9167 66.25C30.9167 68.6892 32.8941 70.6667 35.3333 70.6667H53C55.4393 70.6667 57.4167 68.6892 57.4167 66.25C57.4167 63.8107 55.4393 61.8333 53 61.8333H35.3333Z" fill="black"/>
<path fill-rule="evenodd" clip-rule="evenodd" d="M22.0833 8.83331C17.2048 8.83331 13.25 12.7881 13.25 17.6666V88.3333C13.25 93.2118 17.2048 97.1667 22.0833 97.1667H83.9167C88.7952 97.1667 92.75 93.2118 92.75 88.3333V17.6666C92.75 12.7881 88.7952 8.83331 83.9167 8.83331H22.0833ZM83.9167 17.6666H22.0833L22.0833 88.3333H59.8996L83.9167 62.3148V17.6666ZM83.9167 88.3333H71.9209L83.9167 75.3379V88.3333Z" fill="black"/>
</svg>
