<svg width="106" height="106" viewBox="0 0 106 106" fill="none" xmlns="http://www.w3.org/2000/svg">
<path fill-rule="evenodd" clip-rule="evenodd" d="M95.8729 10.1269C96.9988 11.2529 97.4315 12.8978 97.0053 14.4321L74.922 93.9321C74.4692 95.5621 73.1252 96.7902 71.4611 97.0946C69.797 97.3989 68.1053 96.726 67.1049 95.3618L43.215 62.7848L10.638 38.8949C9.27376 37.8945 8.60086 36.2027 8.90522 34.5387C9.20958 32.8746 10.4377 31.5305 12.0677 31.0777L91.5677 8.99442C93.102 8.56824 94.7469 9.00093 95.8729 10.1269ZM52.1772 60.0687L68.8466 82.7996L84.0005 28.2454L52.1772 60.0687ZM77.7544 21.9992L45.9311 53.8226L23.2001 37.1532L77.7544 21.9992Z" fill="black"/>
</svg>
