<svg width="106" height="106" viewBox="0 0 106 106" fill="none" xmlns="http://www.w3.org/2000/svg">
<path fill-rule="evenodd" clip-rule="evenodd" d="M74.6994 44.1667C74.6994 51.4844 68.7672 57.4167 61.4494 57.4167C54.1316 57.4167 48.1994 51.4844 48.1994 44.1667C48.1994 36.8489 54.1316 30.9167 61.4494 30.9167C68.7672 30.9167 74.6994 36.8489 74.6994 44.1667ZM65.8661 44.1667C65.8661 46.6059 63.8886 48.5833 61.4494 48.5833C59.0101 48.5833 57.0327 46.6059 57.0327 44.1667C57.0327 41.7274 59.0101 39.75 61.4494 39.75C63.8886 39.75 65.8661 41.7274 65.8661 44.1667Z" fill="black"/>
<path fill-rule="evenodd" clip-rule="evenodd" d="M61.4495 0C58.118 0 55.8307 1.84386 54.4437 3.79946C53.1654 5.60181 52.4307 7.76853 51.9437 9.43611C51.7094 10.2387 51.5015 11.0415 51.3211 11.7385L51.2744 11.9188C51.083 12.6576 50.9277 13.2451 50.776 13.7349C49.2831 14.2585 47.8408 14.8886 46.4583 15.6158C46.1336 15.4193 45.7626 15.1831 45.3235 14.9004L45.0881 14.7488C44.5474 14.4002 43.9271 14.0004 43.2961 13.6169C41.9192 12.7802 40.0247 11.7225 38.004 11.2591C35.8177 10.7578 32.8677 10.8522 30.5013 13.2186C28.1529 15.567 28.0344 18.5082 28.4711 20.6737C28.8821 22.7119 29.8716 24.6516 30.675 26.0884C31.0526 26.7636 31.4464 27.425 31.79 28.002L31.9077 28.1998C32.2265 28.7357 32.4871 29.1785 32.6984 29.5628C32.0553 30.8267 31.4928 32.1391 31.0179 33.4931C30.5281 33.6448 29.9406 33.8 29.2017 33.9915L29.0218 34.0381C28.3248 34.2185 27.5217 34.4264 26.719 34.6607C25.0514 35.1477 22.8846 35.8824 21.0822 37.1607C19.1265 38.5478 17.2827 40.8351 17.2827 44.1667C17.2827 47.4982 19.1265 49.7855 21.0822 51.1726C22.8846 52.4509 25.0514 53.1856 26.719 53.6726C27.5219 53.907 28.325 54.1149 29.0221 54.2953L29.2017 54.3419C29.9406 54.5333 30.5281 54.6885 31.0179 54.8403C31.4852 56.1725 32.0372 57.4645 32.6675 58.7097C32.4554 59.0738 32.198 59.4908 31.8849 59.9952L31.8223 60.0959C31.4528 60.6909 31.0227 61.3833 30.6102 62.098C29.7811 63.5344 28.7572 65.4966 28.3559 67.5978C27.919 69.8852 28.1687 72.7821 30.5013 75.1147C32.8476 77.4611 35.7529 77.695 38.0642 77.1909C40.15 76.7361 42.0673 75.6413 43.4433 74.7785C44.1131 74.3586 44.7635 73.9214 45.3219 73.5461L45.4621 73.452C45.871 73.1774 46.2175 72.9462 46.5225 72.7511C47.8854 73.4642 49.3062 74.0829 50.776 74.5984C50.9277 75.0882 51.083 75.6757 51.2744 76.4146L51.321 76.5942C51.5014 77.2913 51.7093 78.0944 51.9437 78.8972C52.4307 80.5648 53.1654 82.7315 54.4437 84.5339C55.8307 86.4895 58.118 88.3333 61.4495 88.3333C64.781 88.3333 67.0683 86.4895 68.4553 84.5339C69.7336 82.7315 70.4683 80.5648 70.9553 78.8972C71.1898 78.0943 71.3977 77.2912 71.5781 76.5941L71.6246 76.4146C71.8161 75.6757 71.9713 75.0882 72.1231 74.5984C73.5929 74.0829 75.0136 73.4642 76.3766 72.7511C76.6815 72.9462 77.028 73.1774 77.4369 73.452L77.5774 73.5463C78.1357 73.9216 78.7861 74.3586 79.4557 74.7785C80.8316 75.6412 82.7489 76.7361 84.8347 77.1909C87.146 77.695 90.0513 77.4611 92.3976 75.1146C94.7301 72.782 94.9796 69.8852 94.5428 67.5978C94.1415 65.4967 93.1177 63.5345 92.2887 62.0981C91.8762 61.3835 91.4463 60.6912 91.0768 60.0962L91.0141 59.9953C90.7009 59.4909 90.4436 59.0739 90.2315 58.7098C90.8618 57.4646 91.4139 56.1725 91.8811 54.8402C92.3709 54.6885 92.9584 54.5333 93.6972 54.3418L93.8774 54.2952C94.5743 54.1148 95.3772 53.907 96.1798 53.6726C97.8474 53.1856 100.014 52.4509 101.816 51.1726C103.772 49.7855 105.616 47.4983 105.616 44.1669C105.616 40.8353 103.772 38.5479 101.817 37.1608C100.014 35.8824 97.8476 35.1477 96.18 34.6607C95.3772 34.4263 94.5741 34.2184 93.877 34.038L93.6973 33.9915C92.9585 33.8 92.371 33.6448 91.8811 33.4931C91.4139 32.1608 90.8618 30.8687 90.2315 29.6235C90.4436 29.2594 90.7009 28.8424 91.0141 28.338L91.0767 28.2372C91.4462 27.6422 91.8762 26.9499 92.2887 26.2352C93.1177 24.7988 94.1415 22.8366 94.5428 20.7355C94.9796 18.4481 94.7301 15.5514 92.3976 13.2187C90.0513 10.8722 87.146 10.6383 84.8347 11.1424C82.7489 11.5973 80.8316 12.6921 79.4557 13.5548C78.7861 13.9747 78.1357 14.4118 77.5773 14.787L77.4369 14.8814C77.028 15.156 76.6815 15.3871 76.3766 15.5822C75.0136 14.8692 73.5928 14.2504 72.123 13.7349C71.9713 13.2451 71.8161 12.6576 71.6246 11.9188L71.5781 11.7392C71.3976 11.0421 71.1898 10.239 70.9553 9.43611C70.4683 7.76852 69.7336 5.60181 68.4553 3.79946C67.0683 1.84386 64.781 0 61.4495 0ZM54.7594 21.7271C56.6914 21.1521 57.7006 19.6876 58.136 18.9402C58.6247 18.1014 58.9506 17.1846 59.1783 16.4623C59.417 15.7051 59.6328 14.8775 59.8253 14.1347L59.8667 13.975C60.0533 13.2544 60.2284 12.5782 60.4229 11.9122C60.7869 10.6658 61.1286 9.79241 61.4495 9.22621C61.7704 9.79241 62.1121 10.6658 62.4761 11.9122C62.6706 12.5781 62.8456 13.2539 63.0322 13.9744L63.0737 14.1347C63.2662 14.8775 63.482 15.7051 63.7208 16.4623C63.9485 17.1846 64.2743 18.1014 64.763 18.9402C65.1984 19.6876 66.2077 21.1521 68.1396 21.7271C70.0412 22.293 71.8426 23.0949 73.5102 24.0996C75.3968 25.2365 77.2873 24.8032 78.0969 24.552C79.0167 24.2666 79.8536 23.8046 80.4567 23.4446C81.0988 23.0614 81.7699 22.6119 82.3619 22.2143L82.4834 22.1327C83.0631 21.7432 83.6023 21.381 84.1482 21.0387C84.6431 20.7284 85.0717 20.4819 85.4398 20.2908C85.2438 20.7206 84.9798 21.2276 84.6382 21.8196C84.299 22.4073 83.9372 22.9899 83.5505 23.6127L83.5096 23.6786C83.128 24.2932 82.6995 24.984 82.3356 25.6394C81.9918 26.2589 81.5628 27.0951 81.2991 27.9957C81.076 28.7578 80.6542 30.6079 81.7289 32.4657C82.6347 34.0316 83.3635 35.7108 83.889 37.4765C84.464 39.4085 85.9286 40.4178 86.676 40.8532C87.5148 41.3419 88.4316 41.6677 89.1539 41.8954C89.9111 42.1341 90.7387 42.3499 91.4815 42.5424L91.6416 42.5839C92.3622 42.7705 93.038 42.9455 93.704 43.14C94.9505 43.504 95.8239 43.8457 96.3901 44.1666C95.8239 44.4875 94.9504 44.8293 93.7038 45.1934C93.0378 45.3878 92.3619 45.5629 91.6414 45.7495L91.4813 45.791C90.7386 45.9834 89.9109 46.1993 89.1538 46.438C88.4315 46.6657 87.5147 46.9915 86.6759 47.4802C85.9285 47.9156 84.464 48.9249 83.889 50.8568C83.3635 52.6225 82.6347 54.3017 81.7289 55.8676C80.6542 57.7255 81.076 59.5755 81.2991 60.3376C81.5628 61.2382 81.9918 62.0744 82.3356 62.6939C82.6995 63.3493 83.128 64.0402 83.5096 64.6547L83.5507 64.7209C83.9373 65.3436 84.2991 65.9261 84.6382 66.5137C84.9798 67.1057 85.2438 67.6128 85.4398 68.0425C85.0717 67.8514 84.6431 67.605 84.1482 67.2947C83.6023 66.9523 83.0631 66.5901 82.4834 66.2006L82.3619 66.119C81.7699 65.7214 81.0988 65.2719 80.4567 64.8887C79.8536 64.5287 79.0167 64.0667 78.0969 63.7814C77.2873 63.5302 75.3968 63.0969 73.5102 64.2337C71.8426 65.2385 70.0412 66.0403 68.1396 66.6062C66.2077 67.1812 65.1984 68.6458 64.763 69.3931C64.2743 70.2319 63.9485 71.1487 63.7208 71.871C63.482 72.6282 63.2662 73.4559 63.0737 74.1986L63.0322 74.3589C62.8456 75.0794 62.6706 75.7552 62.4761 76.4211C62.1121 77.6675 61.7704 78.5409 61.4495 79.1071C61.1286 78.5409 60.7869 77.6675 60.4229 76.4211C60.2284 75.755 60.0533 75.0791 59.8667 74.3583L59.8253 74.1986C59.6328 73.4559 59.417 72.6282 59.1783 71.871C58.9506 71.1487 58.6247 70.2319 58.136 69.3931C57.7006 68.6458 56.6914 67.1812 54.7594 66.6062C52.8578 66.0403 51.0564 65.2385 49.3889 64.2337C47.5022 63.0969 45.6118 63.5302 44.8021 63.7814C43.8824 64.0667 43.0455 64.5287 42.4423 64.8887C41.8003 65.2719 41.1291 65.7214 40.5371 66.119L40.4155 66.2007C39.8358 66.5901 39.2967 66.9524 38.7508 67.2946C38.2558 67.605 37.827 67.8515 37.4589 68.0427C37.6549 67.6129 37.9188 67.1059 38.2606 66.5138C38.5997 65.9262 38.9614 65.3437 39.3481 64.721L39.3892 64.6548C39.7708 64.0403 40.1994 63.3494 40.5632 62.6941C40.9072 62.0746 41.3362 61.2384 41.5999 60.3378C41.823 59.5757 42.2449 57.7255 41.1702 55.8676C40.2644 54.3017 39.5355 52.6225 39.0101 50.8568C38.4351 48.9248 36.9704 47.9156 36.2231 47.4802C35.3843 46.9915 34.4674 46.6656 33.7451 46.4379C32.988 46.1992 32.1603 45.9834 31.4175 45.7909L31.2577 45.7495C30.537 45.5629 29.861 45.3878 29.195 45.1934C27.9484 44.8294 27.0749 44.4876 26.5087 44.1667C27.0749 43.8458 27.9484 43.504 29.195 43.14C29.8609 42.9455 30.5367 42.7705 31.2572 42.5839L31.4175 42.5424C32.1603 42.3499 32.988 42.1341 33.7451 41.8954C34.4674 41.6677 35.3843 41.3419 36.2231 40.8532C36.9704 40.4177 38.4351 39.4085 39.0101 37.4765C39.5355 35.7108 40.2644 34.0316 41.1702 32.4657C42.2255 30.6413 41.8382 28.8164 41.6319 28.0619C41.3861 27.1623 40.9779 26.3205 40.6437 25.6868C40.2906 25.0177 39.8751 24.3154 39.4994 23.6839L39.3827 23.4877C39.0313 22.8974 38.7001 22.341 38.3849 21.7773C38.148 21.3536 37.9466 20.9707 37.7782 20.6262C38.0605 20.7807 38.3701 20.9599 38.7088 21.1658C39.232 21.4837 39.7457 21.8147 40.2938 22.1679L40.5427 22.3282C41.1516 22.7201 41.8347 23.1567 42.4908 23.529C43.1086 23.8795 43.9518 24.3196 44.8706 24.586C45.6716 24.8182 47.5359 25.2162 49.3889 24.0996C51.0564 23.0949 52.8578 22.293 54.7594 21.7271Z" fill="black"/>
</svg>
